<?xml version="1.0" encoding="UTF-8"?>
<svg version="1.1" xmlns="http://www.w3.org/2000/svg" width="500" height="500">
<path d="M0 0 C165 0 330 0 500 0 C500 165 500 330 500 500 C335 500 170 500 0 500 C0 335 0 170 0 0 Z " fill="#FEFEFE" transform="translate(0,0)"/>
<path d="M0 0 C5.01034148 2.97294121 8.94726425 6.59521403 11.05078125 12.1640625 C12.56878594 18.53736461 12.78026914 25.06543694 9.375 30.8125 C5.90768377 35.5202364 2.11467936 38.45386446 -3.4375 40.3125 C-12.30162722 41.17647189 -19.03656779 40.79230686 -26.125 35.1875 C-30.61290623 29.6079409 -33.20787401 23.75628007 -32.81640625 16.5078125 C-31.68801946 9.97014882 -28.32326416 5.69789111 -23.31640625 1.5390625 C-16.50198692 -2.90943577 -7.38851577 -3.46951216 0 0 Z " fill="#080808" transform="translate(312.4375,224.6875)"/>
<path d="M0 0 C5.86277523 2.68490457 9.02468781 5.55144712 12.2265625 11.12890625 C13.2265625 14.12890625 13.2265625 14.12890625 13.2265625 23.12890625 C2.6665625 23.12890625 -7.8934375 23.12890625 -18.7734375 23.12890625 C-16.22339696 28.88750507 -16.22339696 28.88750507 -11.7734375 32.12890625 C-5.74484099 33.0453248 -0.79908953 32.74109364 4.2265625 29.12890625 C7.63081094 30.26365573 8.44309959 31.09701929 10.2265625 34.12890625 C9.03030059 37.71769199 7.54162678 38.55982383 4.27685547 40.30419922 C0.79879443 41.70320972 -2.49941995 41.76655836 -6.2109375 41.69140625 C-6.96012451 41.68262451 -7.70931152 41.67384277 -8.48120117 41.66479492 C-14.31685339 41.44894265 -18.52541299 40.34239397 -22.7734375 36.12890625 C-28.36454439 30.09639619 -29.24677152 25.50060536 -29.07421875 17.390625 C-28.65647768 12.86057576 -27.7651787 9.6021678 -24.7734375 6.12890625 C-17.0761741 -0.10546695 -9.87593963 -3.10187963 0 0 Z " fill="#070707" transform="translate(176.7734375,223.87109375)"/>
<path d="M0 0 C3.42672461 3.21255432 5.9368381 6.2904179 6.11352539 11.07275391 C6.10828857 12.36101074 6.10305176 13.64926758 6.09765625 14.9765625 C6.0962413 15.66181 6.09482635 16.3470575 6.09336853 17.05307007 C6.08776675 19.24375761 6.07521406 21.4343433 6.0625 23.625 C6.05748522 25.10937352 6.05292228 26.59374865 6.04882812 28.078125 C6.03779677 31.71878315 6.02053099 35.35938164 6 39 C3.03 39 0.06 39 -3 39 C-3.33 38.01 -3.66 37.02 -4 36 C-4.721875 36.495 -5.44375 36.99 -6.1875 37.5 C-11.37517115 40.08764504 -17.38135249 39.65681775 -23 39 C-26.81703861 37.55533233 -28.73000696 35.40498956 -31 32 C-31.69502786 27.23178561 -31.69437161 23.23443842 -29.3125 19 C-24.16996281 14.55240027 -19.16363323 14.74210382 -12.6875 14.875 C-11.85154297 14.88402344 -11.01558594 14.89304688 -10.15429688 14.90234375 C-8.10274031 14.92579011 -6.05133223 14.96165734 -4 15 C-4.93913073 10.0583119 -4.93913073 10.0583119 -8.125 6.5625 C-15.43106489 5.13305252 -20.28062265 6.12026685 -27 9 C-30.10338346 4.70300752 -30.10338346 4.70300752 -29.6875 1.875 C-23.02131818 -5.53186869 -7.99126463 -5.01303869 0 0 Z " fill="#060606" transform="translate(389,226)"/>
<path d="M0 0 C-0.875 5.75 -0.875 5.75 -2 8 C-4.71108863 7.5215726 -7.11995142 6.95257735 -9.6875 5.9375 C-15.25663378 4.36133006 -20.62049531 4.19096841 -26.125 6.0625 C-28.39098041 7.99546116 -28.39098041 7.99546116 -28.3125 11.6875 C-28.209375 12.780625 -28.10625 13.87375 -28 15 C-22.81662092 17.21502317 -17.72726699 19.140075 -12.25 20.5 C-6.62569518 21.97548758 -2.90468327 24.24568646 1.375 28.1875 C3.67749257 32.17258329 3.77866959 35.50278584 3 40 C0.23624756 45.63380305 -3.69772505 48.4253303 -9.27734375 51.0859375 C-18.48721103 54.1779159 -28.47955815 52.13203728 -37 48 C-37.99 47.34 -38.98 46.68 -40 46 C-39.47731534 43.23723823 -38.89130413 40.6739124 -38 38 C-32.33237822 39.84527221 -32.33237822 39.84527221 -29.734375 41.0546875 C-26.35605479 42.22262106 -23.5066417 42.26526906 -19.9375 42.25 C-18.72964844 42.25515625 -17.52179688 42.2603125 -16.27734375 42.265625 C-13.21335624 42.01729228 -11.4639866 41.80175291 -9 40 C-8.18415432 36.94091587 -8.18415432 36.94091587 -8 34 C-12.24609387 30.04003105 -17.70111222 29.35347002 -23.18164062 28.0703125 C-29.31500296 26.51263318 -34.62342539 24.37447335 -38.4140625 18.9921875 C-39.94933048 13.77227636 -39.69821145 8.68205486 -37.625 3.6875 C-27.42256931 -6.75784571 -12.49686411 -6.24843205 0 0 Z " fill="#080808" transform="translate(142,214)"/>
<path d="M0 0 C3.3 0 6.6 0 10 0 C10.33 1.32 10.66 2.64 11 4 C11.928125 3.34 12.85625 2.68 13.8125 2 C18.70053888 -0.79174578 23.51981749 -0.67155035 29 0 C34.67458259 1.89152753 38.32628019 5.65256038 41 11 C41.08586809 13.32416296 41.10711043 15.65083307 41.09765625 17.9765625 C41.0962413 18.66181 41.09482635 19.3470575 41.09336853 20.05307007 C41.08776675 22.24375761 41.07521406 24.4343433 41.0625 26.625 C41.05748522 28.10937352 41.05292228 29.59374865 41.04882812 31.078125 C41.03779677 34.71878315 41.02053099 38.35938164 41 42 C37.7 42 34.4 42 31 42 C30.9906543 41.17274414 30.98130859 40.34548828 30.97167969 39.49316406 C30.91799681 35.74483585 30.8343429 31.99775838 30.75 28.25 C30.73582031 26.94804687 30.72164062 25.64609375 30.70703125 24.3046875 C30.67480469 23.05429688 30.64257812 21.80390625 30.609375 20.515625 C30.58842773 19.36352539 30.56748047 18.21142578 30.54589844 17.02441406 C29.89342267 13.4095349 28.884656 12.20716613 26 10 C23.51933198 9.48262628 23.51933198 9.48262628 20.9375 9.6875 C19.65166016 9.72423828 19.65166016 9.72423828 18.33984375 9.76171875 C15.84754076 9.92943793 15.84754076 9.92943793 13 11 C11.02227056 14.7056448 10.70874154 18.0209112 10.5859375 22.17578125 C10.52792969 23.91118164 10.52792969 23.91118164 10.46875 25.68164062 C10.42234375 27.47891602 10.42234375 27.47891602 10.375 29.3125 C10.31699219 31.1387793 10.31699219 31.1387793 10.2578125 33.00195312 C10.16371998 36.00115228 10.07807791 39.00034823 10 42 C6.7 42 3.4 42 0 42 C0 28.14 0 14.28 0 0 Z " fill="#0C0C0C" transform="translate(196,223)"/>
<path d="M0 0 C-0.52268466 2.76276177 -1.10869587 5.3260876 -2 8 C-2.928125 7.67 -3.85625 7.34 -4.8125 7 C-9.92437478 5.52300339 -17.1315316 4.5657658 -22 7 C-22 8.65 -22 10.3 -22 12 C-18.33598748 13.34989935 -14.77023205 14.25574348 -10.9375 14.9375 C-7.06502218 15.68176 -4.19393963 16.58034876 -1 19 C-0.401875 19.391875 0.19625 19.78375 0.8125 20.1875 C2.81670321 23.24654701 2.47810644 26.5166531 2 30 C0.64545221 33.72500643 -0.92382978 34.94363404 -4.125 37.3125 C-11.27550505 40.56877089 -21.45995184 40.42916034 -28.87890625 38.09375 C-31.0625 37 -31.0625 37 -34 35 C-33.01 32.69 -32.02 30.38 -31 28 C-30.13375 28.33 -29.2675 28.66 -28.375 29 C-22.6238671 30.67197884 -13.43707127 31.71853563 -8 29 C-8.33 27.68 -8.66 26.36 -9 25 C-10.15757812 24.76925781 -11.31515625 24.53851563 -12.5078125 24.30078125 C-14.04707299 23.97228054 -15.58612488 23.64280132 -17.125 23.3125 C-18.26582031 23.08916992 -18.26582031 23.08916992 -19.4296875 22.86132812 C-24.87984289 21.66323362 -28.06202347 19.9931818 -32 16 C-33.21762731 12.34711807 -33.39075851 9.84245864 -33 6 C-30.41591655 1.92811094 -27.87176049 -0.81929811 -23.21484375 -2.53125 C-15.09717096 -4.24927599 -7.45553082 -3.50848509 0 0 Z " fill="#090909" transform="translate(276,226)"/>
<path d="M0 0 C0 2.97 0 5.94 0 9 C-2.21354167 9.35807292 -4.42708333 9.71614583 -6.640625 10.07421875 C-9.91888937 11.36055758 -11.05422684 13.08938065 -13 16 C-13.63360976 18.9817875 -13.63360976 18.9817875 -13.609375 22.17578125 C-13.64160156 23.33271484 -13.67382812 24.48964844 -13.70703125 25.68164062 C-13.72830078 27.47891602 -13.72830078 27.47891602 -13.75 29.3125 C-13.77964844 30.53001953 -13.80929687 31.74753906 -13.83984375 33.00195312 C-13.91041823 36.00136833 -13.96317864 39.0000117 -14 42 C-17.3 42 -20.6 42 -24 42 C-24 28.47 -24 14.94 -24 1 C-21.03 1 -18.06 1 -15 1 C-14.67 2.32 -14.34 3.64 -14 5 C-13.236875 4.360625 -12.47375 3.72125 -11.6875 3.0625 C-7.70935607 0.00950582 -4.88502293 -0.10855607 0 0 Z " fill="#070707" transform="translate(355,223)"/>
<path d="M0 0 C3 2.5 3 2.5 5 5 C5.33 5.33 5.66 5.66 6 6 C7.06617269 15.79355768 7.06617269 15.79355768 4.98828125 20.09375 C2.36038449 23.3135154 0.02861375 24.73407685 -4.0859375 25.2734375 C-8.4895784 25.46882088 -10.35617189 25.50684341 -13.9375 22.6875 C-17.56264426 17.96382718 -18.70829464 14.92494088 -18 9 C-16.67991949 5.18643408 -15.33182793 3.30812594 -12.375 0.5625 C-7.93866359 -1.49135945 -4.6393389 -1.51227069 0 0 Z " fill="#F9F9F9" transform="translate(308,232)"/>
<path d="M0 0 C4.9391036 2.79166725 5.09007591 4.27022773 7 10 C-0.59 10 -8.18 10 -16 10 C-15 4 -15 4 -13.125 2.1875 C-8.90426223 -0.17114758 -4.74893632 -0.6585439 0 0 Z " fill="#F6F6F6" transform="translate(174,231)"/>
<path d="M0 0 C1.26328125 0.02707031 2.5265625 0.05414063 3.828125 0.08203125 C4.79234375 0.11683594 5.7565625 0.15164062 6.75 0.1875 C6.984375 6.8828125 6.984375 6.8828125 4.875 9.625 C0.58522632 11.76988684 -3.52985703 12.0755269 -8.25 11.1875 C-10.60353458 9.37191618 -11.16850496 8.65318593 -11.6875 5.6875 C-11.25 3.1875 -11.25 3.1875 -9.67578125 1.54296875 C-6.34381645 -0.31885377 -3.7888699 -0.10524639 0 0 Z " fill="#F4F4F4" transform="translate(378.25,246.8125)"/>
<path d="M0 0 C1.32 0.33 2.64 0.66 4 1 C4.825 0.835 5.65 0.67 6.5 0.5 C9 0 9 0 10.9375 0.5 C13.15645909 1.18616347 13.15645909 1.18616347 16.0625 0.4375 C19 0 19 0 22 2 C22.29296875 4.8203125 22.29296875 4.8203125 22.1875 8.125 C22.16042969 9.22070312 22.13335937 10.31640625 22.10546875 11.4453125 C22.07066406 12.28835938 22.03585937 13.13140625 22 14 C21.01 14 20.02 14 19 14 C18.505 9.05 18.505 9.05 18 4 C16.68 3.67 15.36 3.34 14 3 C13.67 6.63 13.34 10.26 13 14 C11.68 14 10.36 14 9 14 C8.67 10.7 8.34 7.4 8 4 C6.68 4.33 5.36 4.66 4 5 C3.67 7.97 3.34 10.94 3 14 C2.01 14 1.02 14 0 14 C0 9.38 0 4.76 0 0 Z " fill="#B0B0B0" transform="translate(264,293)"/>
<path d="M0 0 C0.99 0 1.98 0 3 0 C3 0.99 3 1.98 3 3 C3.99 3 4.98 3 6 3 C6 3.66 6 4.32 6 5 C5.01 5 4.02 5 3 5 C3 7.64 3 10.28 3 13 C4.32 13 5.64 13 7 13 C7 13.99 7 14.98 7 16 C4.625 16.125 4.625 16.125 2 16 C0 14 0 14 -0.1953125 11.8359375 C-0.13020833 9.55729167 -0.06510417 7.27864583 0 5 C-3.3 5.33 -6.6 5.66 -10 6 C-6.23570226 8 -6.23570226 8 -3 9 C-3 10.98 -3 12.96 -3 15 C-6.21451269 16.60725635 -9.43612536 16.05748185 -13 16 C-13 14.68 -13 13.36 -13 12 C-10.69 12.33 -8.38 12.66 -6 13 C-6 12.34 -6 11.68 -6 11 C-6.94875 10.87625 -7.8975 10.7525 -8.875 10.625 C-12 10 -12 10 -14 8 C-13.63318342 5.06546739 -13.13562754 4.13562754 -11 2 C-8.3984375 2.0234375 -8.3984375 2.0234375 -5.375 2.375 C-4.37210938 2.48585938 -3.36921875 2.59671875 -2.3359375 2.7109375 C-1.17964844 2.85402344 -1.17964844 2.85402344 0 3 C0 2.01 0 1.02 0 0 Z " fill="#AFAFAF" transform="translate(240,291)"/>
<path d="M0 0 C3.26597819 1.13599241 4.27288761 1.97378771 5.875 5 C5.875 5.99 5.875 6.98 5.875 8 C2.245 8 -1.385 8 -5.125 8 C-5.125 8.66 -5.125 9.32 -5.125 10 C-2.155 10 0.815 10 3.875 10 C3.545 11.32 3.215 12.64 2.875 14 C-3.40086207 14.48275862 -3.40086207 14.48275862 -6.5625 12.375 C-8.60991197 9.2629338 -8.81051032 7.65605504 -8.125 4 C-5.44552793 0.92648792 -4.10841148 0 0 0 Z " fill="#AFAFAF" transform="translate(256.125,293)"/>
<path d="M0 0 C0.99 0 1.98 0 3 0 C3.99 2.97 4.98 5.94 6 9 C6.66 9 7.32 9 8 9 C8.99 6.03 9.98 3.06 11 0 C11.99 0 12.98 0 14 0 C13.05723865 3.0211216 12.04246916 6.01188797 11 9 C10.7215625 9.84691406 10.443125 10.69382812 10.15625 11.56640625 C9.27464822 13.93381103 8.467416 15.94103192 7 18 C3.25 19.0625 3.25 19.0625 0 19 C0 18.01 0 17.02 0 16 C1.32 15.67 2.64 15.34 4 15 C3.51842957 11.82163518 2.72203116 9.35511229 1.4375 6.375 C0 3 0 3 0 0 Z " fill="#AFAFAF" transform="translate(212,293)"/>
<path d="M0 0 C3 0.1875 3 0.1875 5 1.1875 C4.67 2.1775 4.34 3.1675 4 4.1875 C2.02 4.1875 0.04 4.1875 -2 4.1875 C-1.4225 4.47625 -0.845 4.765 -0.25 5.0625 C1.83333333 6.10416667 3.91666667 7.14583333 6 8.1875 C5.625 10.625 5.625 10.625 5 13.1875 C1.78548731 14.79475635 -1.43612536 14.24498185 -5 14.1875 C-5 12.8675 -5 11.5475 -5 10.1875 C-2.69 10.5175 -0.38 10.8475 2 11.1875 C2 10.5275 2 9.8675 2 9.1875 C1.05125 9.06375 0.1025 8.94 -0.875 8.8125 C-4 8.1875 -4 8.1875 -6 6.1875 C-5.48493038 2.06694303 -4.32783407 0.27048963 0 0 Z " fill="#B2B2B2" transform="translate(206,292.8125)"/>
<path d="M0 0 C0 0.66 0 1.32 0 2 C-2.31 2 -4.62 2 -7 2 C-7 2.99 -7 3.98 -7 5 C-4.69 5.33 -2.38 5.66 0 6 C0.33 7.65 0.66 9.3 1 11 C-2.08888522 13.05925681 -2.70935927 13.2390374 -6.1875 13.125 C-8.0746875 13.063125 -8.0746875 13.063125 -10 13 C-10.33 12.01 -10.66 11.02 -11 10 C-8.03 10 -5.06 10 -2 10 C-2 9.34 -2 8.68 -2 8 C-3.134375 7.855625 -4.26875 7.71125 -5.4375 7.5625 C-9 7 -9 7 -10 6 C-10.25 3.5625 -10.25 3.5625 -10 1 C-6.1496895 -1.56687367 -4.41430237 -0.83288724 0 0 Z " fill="#B2B2B2" transform="translate(299,294)"/>
<path d="M0 0 C4.00375642 1.4856239 7.61421847 3.36863385 11.3125 5.5 C12.38113281 6.1084375 13.44976562 6.716875 14.55078125 7.34375 C15.76314453 8.16359375 15.76314453 8.16359375 17 9 C17 9.66 17 10.32 17 11 C14.56866946 12.63863397 12.15228465 14.14921334 9.625 15.625 C8.57699219 16.25535156 8.57699219 16.25535156 7.5078125 16.8984375 C2.27140828 20 2.27140828 20 0 20 C0 19.01 0 18.02 0 17 C2.1171875 15.39453125 2.1171875 15.39453125 4.875 13.8125 C5.77992188 13.28269531 6.68484375 12.75289063 7.6171875 12.20703125 C10 11 10 11 12 11 C12 10.34 12 9.68 12 9 C11.319375 8.7525 10.63875 8.505 9.9375 8.25 C6.43134917 6.75802092 3.28379632 4.93164489 0 3 C0 2.01 0 1.02 0 0 Z " fill="#B0B0B0" transform="translate(303,289)"/>
<path d="M0 0 C0 0.99 0 1.98 0 3 C-2.1875 4.53515625 -2.1875 4.53515625 -5 6.0625 C-6.69671464 6.98862341 -8.37266925 7.95676475 -10 9 C-10 9.66 -10 10.32 -10 11 C-7.46361472 12.62600413 -4.83464792 14.02729536 -2.1875 15.46484375 C-1.465625 15.97144531 -0.74375 16.47804688 0 17 C0 17.99 0 18.98 0 20 C-3.95906817 18.56691865 -7.28718181 16.66858051 -10.8125 14.375 C-11.78832031 13.74335938 -12.76414063 13.11171875 -13.76953125 12.4609375 C-14.50558594 11.97882813 -15.24164063 11.49671875 -16 11 C-14.6551963 6.96558889 -12.04690097 5.87332753 -8.5625 3.8125 C-7.96373047 3.44447266 -7.36496094 3.07644531 -6.74804688 2.69726562 C-2.27929325 0 -2.27929325 0 0 0 Z " fill="#AEAEAE" transform="translate(196,289)"/>
<path d="M0 0 C0.99 0 1.98 0 3 0 C3 0.99 3 1.98 3 3 C3.99 3 4.98 3 6 3 C6 3.66 6 4.32 6 5 C5.01 5 4.02 5 3 5 C3 7.64 3 10.28 3 13 C4.32 13 5.64 13 7 13 C7 13.99 7 14.98 7 16 C4.625 16.125 4.625 16.125 2 16 C0 14 0 14 -0.1953125 11.8359375 C-0.17210937 11.02382813 -0.14890625 10.21171875 -0.125 9.375 C-0.10695312 8.55773437 -0.08890625 7.74046875 -0.0703125 6.8984375 C-0.04710937 6.27195312 -0.02390625 5.64546875 0 5 C-0.66 5 -1.32 5 -2 5 C-2 4.34 -2 3.68 -2 3 C-1.34 3 -0.68 3 0 3 C0 2.01 0 1.02 0 0 Z " fill="#A8A8A8" transform="translate(240,291)"/>
<path d="M0 0 C0.33 0.99 0.66 1.98 1 3 C3.31 3 5.62 3 8 3 C8 3.33 8 3.66 8 4 C5.69 4 3.38 4 1 4 C1 4.66 1 5.32 1 6 C3.97 6 6.94 6 10 6 C9.67 7.32 9.34 8.64 9 10 C2.71611253 10.48337596 2.71611253 10.48337596 -0.5 8.3125 C-2 6 -2 6 -1.8125 3.3125 C-1 1 -1 1 0 0 Z " fill="#ADADAD" transform="translate(250,297)"/>
<path d="M0 0 C3.3 0 6.6 0 10 0 C10 2.64 10 5.28 10 8 C9.01 8.33 8.02 8.66 7 9 C7 7.35 7 5.7 7 4 C4.69 3.67 2.38 3.34 0 3 C0 2.01 0 1.02 0 0 Z " fill="#F2F2F2" transform="translate(230,296)"/>
<path d="M0 0 C0.99 0 1.98 0 3 0 C3.66 1.32 4.32 2.64 5 4 C4.67 4.33 4.34 4.66 4 5 C3.76807135 6.51469448 3.58784762 8.03754562 3.4375 9.5625 C3.35371094 10.38878906 3.26992188 11.21507812 3.18359375 12.06640625 C3.12300781 12.70449219 3.06242187 13.34257812 3 14 C2.01 14 1.02 14 0 14 C0 9.38 0 4.76 0 0 Z " fill="#A9A9A9" transform="translate(264,293)"/>
<path d="M0 0 C0 0.66 0 1.32 0 2 C-2.31 2 -4.62 2 -7 2 C-7 2.99 -7 3.98 -7 5 C-5.68 5 -4.36 5 -3 5 C-3 5.66 -3 6.32 -3 7 C-4.99954746 7.04254356 -7.00041636 7.04080783 -9 7 C-10 6 -10 6 -10.25 3.5625 C-10.1675 2.716875 -10.085 1.87125 -10 1 C-6.1496895 -1.56687367 -4.41430237 -0.83288724 0 0 Z " fill="#A9A9A9" transform="translate(299,294)"/>
<path d="M0 0 C0.185625 0.61875 0.37125 1.2375 0.5625 1.875 C2.71437233 5.05602866 5.37533763 5.19451947 9 6 C9 6.66 9 7.32 9 8 C5.7 8 2.4 8 -1 8 C-1.33 8.99 -1.66 9.98 -2 11 C-2 7.7 -2 4.4 -2 1 C-1.34 0.67 -0.68 0.34 0 0 Z " fill="#EDEDED" transform="translate(288,296)"/>
<path d="M0 0 C2.31 0.33 4.62 0.66 7 1 C7 1.66 7 2.32 7 3 C4.69 3 2.38 3 0 3 C-0.33 3.66 -0.66 4.32 -1 5 C-0.67 3.35 -0.34 1.7 0 0 Z " fill="#B0B0B0" transform="translate(292,293)"/>
<path d="M0 0 C2.97 0.33 5.94 0.66 9 1 C9 1.66 9 2.32 9 3 C6 4 6 4 3.9375 3.1875 C2 2 2 2 0 0 Z " fill="#BABABA" transform="translate(229,293)"/>
<path d="M0 0 C2.4375 0.375 2.4375 0.375 5 1 C5.33 1.66 5.66 2.32 6 3 C3.36 3 0.72 3 -2 3 C-1.34 2.01 -0.68 1.02 0 0 Z " fill="#F9F9F9" transform="translate(253,296)"/>
</svg>
