<?xml version="1.0" encoding="UTF-8"?>
<svg version="1.1" xmlns="http://www.w3.org/2000/svg" width="500" height="500">
<path d="M0 0 C165 0 330 0 500 0 C500 165 500 330 500 500 C335 500 170 500 0 500 C0 335 0 170 0 0 Z " fill="#FEFEFE" transform="translate(0,0)"/>
<path d="M0 0 C1.3094059 3.92821769 0.04456239 6.14018935 -1.45703125 9.78515625 C-1.72005539 10.44204941 -1.98307953 11.09894257 -2.2540741 11.77574158 C-2.81209853 13.16359193 -3.3747468 14.54959074 -3.94165039 15.93383789 C-4.80892155 18.053753 -5.66042949 20.17948554 -6.50976562 22.30664062 C-7.0537652 23.65401857 -7.59865742 25.00103654 -8.14453125 26.34765625 C-8.527481 27.30237572 -8.527481 27.30237572 -8.91816711 28.27638245 C-10.0362462 30.99104969 -10.90132682 32.90132682 -13 35 C-14.61068359 34.18595703 -14.61068359 34.18595703 -16.25390625 33.35546875 C-17.69004949 32.63270385 -19.1262505 31.91005372 -20.5625 31.1875 C-21.26697266 30.83107422 -21.97144531 30.47464844 -22.69726562 30.10742188 C-46.63372334 18.08403989 -77.6624331 13.05858777 -103.73828125 20.796875 C-112.84433156 24.15575344 -120.75614474 29.16516106 -125.05859375 38.23046875 C-127.19112389 44.50417776 -127.17798153 52.34492733 -124.4375 58.4375 C-116.66307967 71.2693287 -99.9633046 75.52779188 -86.34179688 78.90771484 C-83.10587071 79.66312699 -79.86792543 80.40836663 -76.62854004 81.14871216 C-64.49839364 83.94509613 -52.57136974 87.15844793 -40.75 91.0625 C-39.55705322 91.44937988 -38.36410645 91.83625977 -37.13500977 92.23486328 C-24.25860016 96.60476359 -13.68498392 102.42424523 -4 112 C-3.0925 112.825 -2.185 113.65 -1.25 114.5 C10.46920681 127.5213409 12.01711655 142.70725191 11.2265625 159.60205078 C10.64115424 165.79804212 8.48447131 171.32404027 6 177 C5.5771875 177.97324219 5.154375 178.94648438 4.71875 179.94921875 C-1.10035717 191.80734121 -10.46233986 200.77510431 -22 207 C-22.98097656 207.53238281 -23.96195313 208.06476563 -24.97265625 208.61328125 C-43.07117984 218.02451352 -61.17010197 220.54084234 -81.38183594 220.33618164 C-83.89550345 220.31230525 -86.40812029 220.31569404 -88.921875 220.32226562 C-98.12096771 220.30705241 -106.9487527 219.81009521 -116 218 C-116.89396484 217.82315674 -117.78792969 217.64631348 -118.70898438 217.46411133 C-138.2969697 213.36605976 -160.27765241 207.36326594 -175 193 C-172.69182884 185.50829089 -169.62777717 178.53433204 -166.3125 171.4375 C-165.80138672 170.33341797 -165.29027344 169.22933594 -164.76367188 168.09179688 C-163.5133598 165.39252502 -162.25872684 162.69535545 -161 160 C-156.88688063 160.87872449 -153.81632945 162.88733335 -150.3125 165.125 C-122.73155767 182.17311644 -88.8365963 188.645082 -57.07275391 181.55664062 C-49.74830038 179.58964957 -42.7325804 176.02328415 -38 170 C-37.53851563 169.484375 -37.07703125 168.96875 -36.6015625 168.4375 C-32.31403359 162.94188283 -32.26151939 157.35971134 -32.53125 150.5625 C-33.47206606 143.41229797 -36.63139431 139.80369704 -42.1875 135.4375 C-57.61027874 125.45805493 -76.7473505 121.7858328 -94.39453125 117.76171875 C-119.48545809 112.03244128 -147.80595833 105.14216178 -162.5625 81.9375 C-170.25545419 67.57113976 -172.84369727 50.04675509 -168.9375 34.0625 C-162.4517986 14.90988882 -150.86943785 1.46332423 -133 -8 C-132.05511719 -8.50402344 -131.11023438 -9.00804687 -130.13671875 -9.52734375 C-92.67184607 -27.50499328 -34.35941767 -23.38066883 0 0 Z " fill="#010101" transform="translate(332,152)"/>
<path d="M0 0 C1.50659094 9.225938 2.80471342 18.93051641 0 28 C-5.21183239 34.62500019 -13.27483138 37.92252626 -20.75341797 41.41064453 C-25.72949137 43.84666783 -30.26584345 46.8782893 -34.875 49.9375 C-36.40960713 50.93268549 -37.94826894 51.92166608 -39.4921875 52.90234375 C-40.44134033 53.51323853 -40.44134033 53.51323853 -41.40966797 54.13647461 C-43 55 -43 55 -45 55 C-42.22981803 58.20914829 -38.67314756 60.12803817 -35.05859375 62.23828125 C-34.03512596 62.8431562 -34.03512596 62.8431562 -32.99098206 63.46025085 C-30.80897234 64.74860323 -28.62335639 66.03068701 -26.4375 67.3125 C-24.99389062 68.16298725 -23.55052866 69.0138946 -22.10742188 69.86523438 C-21.0517099 70.48609924 -21.0517099 70.48609924 -19.97467041 71.11950684 C-18.57714259 71.94581822 -17.18348824 72.77871758 -15.79388428 73.61828613 C-12.81675401 75.40760558 -9.95925222 77.01766188 -6.76464844 78.40234375 C-3.90088901 79.69454027 -2.05707651 80.61891837 0 83 C1.20557909 88.18008365 0.94785639 93.1227966 0.625 98.375 C0.57479189 99.79281219 0.52917258 101.21079477 0.48828125 102.62890625 C0.37853182 106.08949952 0.20630107 109.54366362 0 113 C-3.35282102 111.72338587 -6.44401243 110.2808477 -9.5546875 108.49609375 C-10.40820801 108.00786133 -11.26172852 107.51962891 -12.14111328 107.01660156 C-13.0432959 106.49549805 -13.94547852 105.97439453 -14.875 105.4375 C-16.29208252 104.62297363 -16.29208252 104.62297363 -17.73779297 103.79199219 C-24.09061034 100.13002128 -30.39708894 96.39940888 -36.671875 92.60546875 C-41.36840432 89.76980667 -46.08754799 86.97239932 -50.80883789 84.17822266 C-53.18054049 82.77385069 -55.54630837 81.36017062 -57.90795898 79.93896484 C-63.03319284 76.86463893 -68.14509105 73.86134229 -73.51953125 71.23828125 C-83.91020545 66.08096516 -83.91020545 66.08096516 -86.7265625 60.703125 C-87.4685402 56.1721145 -87.12347302 54.08711474 -85 50 C-80.23903943 45.42953647 -74.01362911 42.68848008 -68.20117188 39.70458984 C-62.9316978 36.89865116 -57.87829068 33.74264184 -52.80026245 30.60855103 C-49.80899474 28.76661243 -46.80454891 26.9464563 -43.80078125 25.125 C-43.21873428 24.77158035 -42.63668732 24.41816071 -42.03700256 24.05403137 C-35.19325336 19.89951238 -28.3288859 15.77968814 -21.45703125 11.671875 C-18.46670826 9.8835382 -15.48583494 8.08078263 -12.51171875 6.265625 C-11.81087158 5.83958984 -11.11002441 5.41355469 -10.38793945 4.97460938 C-9.08611177 4.18261815 -7.78632 3.38726644 -6.48901367 2.58789062 C-2.22421362 0 -2.22421362 0 0 0 Z " fill="#A7A7A7" transform="translate(101,198)"/>
<path d="M0 0 C3.70978253 1.38378449 7.00969326 3.07357817 10.41015625 5.09765625 C11.468396 5.72575195 12.52663574 6.35384766 13.61694336 7.00097656 C14.76555642 7.6879936 15.91407266 8.37517255 17.0625 9.0625 C18.26234966 9.77718868 19.46230276 10.49170373 20.66235352 11.20605469 C31.04158285 17.39331107 41.37006265 23.66425321 51.69107056 29.94798279 C59.81381577 34.89312649 67.96173963 39.79524858 76.12109375 44.6796875 C76.79551514 45.09210693 77.46993652 45.50452637 78.16479492 45.92944336 C80.15455088 47.13163699 80.15455088 47.13163699 83.015625 48.37109375 C85 50 85 50 85.48828125 53.35546875 C85.43027344 54.62003906 85.37226563 55.88460937 85.3125 57.1875 C85.26738281 58.45980469 85.22226562 59.73210937 85.17578125 61.04296875 C85.11777344 62.01878906 85.05976563 62.99460937 85 64 C84.13503906 64.47566406 83.27007812 64.95132813 82.37890625 65.44140625 C72.84229925 70.72697365 63.48103847 76.27823745 54.14575195 81.91064453 C44.54156738 87.69712805 34.87435483 93.37155477 25.18481445 99.01367188 C18.21266743 103.07969938 18.21266743 103.07969938 11.32226562 107.28173828 C10.72577209 107.65359756 10.12927856 108.02545685 9.51470947 108.40858459 C7.85878183 109.44556905 6.20709106 110.48931031 4.55566406 111.53344727 C2 113 2 113 0 113 C-1.91814746 103.73663882 -4.26638648 91.95867221 0 83 C6.78007038 74.63792352 18.54843706 70.24000238 28.10009766 65.87548828 C32.67110289 63.74892916 36.82199233 61.08299695 40.98510742 58.24780273 C43 57 43 57 45 57 C45 56.34 45 55.68 45 55 C44.04287109 54.66935547 44.04287109 54.66935547 43.06640625 54.33203125 C37.86971394 52.07461459 33.11257621 49.04844154 28.31542969 46.046875 C23.71319275 43.17441576 19.17469491 40.55970427 14.23828125 38.30078125 C3.38579145 32.97086584 3.38579145 32.97086584 0 28 C-2.36806859 18.87620846 -1.24016895 9.23735071 0 0 Z " fill="#A7A7A7" transform="translate(398,198)"/>
</svg>
