<?xml version="1.0" encoding="UTF-8"?>
<svg version="1.1" xmlns="http://www.w3.org/2000/svg" width="500" height="500">
<path d="M0 0 C165 0 330 0 500 0 C500 165 500 330 500 500 C335 500 170 500 0 500 C0 335 0 170 0 0 Z " fill="#000000" transform="translate(0,0)"/>
<path d="M0 0 C5.13848522 2.9753487 8.52050944 6.46422627 10.625 12.0625 C11.6910419 18.86684555 11.4845228 25.4011438 7.89453125 31.4140625 C4.61126445 35.67725816 0.75770108 38.39273869 -4.375 40.0625 C-11.37778305 40.88635683 -18.3920063 41.35014166 -24.5625 37.5 C-29.97326182 33.18973211 -32.8248172 27.86081558 -33.61328125 20.984375 C-33.81317789 15.13476799 -32.82298115 10.85136271 -29.375 6.0625 C-21.41841261 -2.44086709 -10.86717843 -4.76774848 0 0 Z " fill="#F6F6F6" transform="translate(313.375,224.9375)"/>
<path d="M0 0 C6.2039887 3.18019589 10.15035528 7.41981585 12.38671875 14.12890625 C12.38671875 17.09890625 12.38671875 20.06890625 12.38671875 23.12890625 C1.82671875 23.12890625 -8.73328125 23.12890625 -19.61328125 23.12890625 C-17.0540232 28.87796565 -17.0540232 28.87796565 -12.61328125 32.12890625 C-6.52514034 33.15364284 -1.97073374 32.13430643 3.38671875 29.12890625 C6.79096719 30.26365573 7.60325584 31.09701929 9.38671875 34.12890625 C8.38671875 37.12890625 8.38671875 37.12890625 6.6796875 38.26171875 C5.98488281 38.58914063 5.29007813 38.9165625 4.57421875 39.25390625 C3.88714844 39.58648437 3.20007813 39.9190625 2.4921875 40.26171875 C-4.02482558 42.94590596 -10.14228462 42.89089904 -16.73828125 40.56640625 C-22.89204143 37.90608839 -27.1306604 33.36870775 -29.61328125 27.12890625 C-30.49161469 20.3471586 -30.74929213 13.92109875 -26.98828125 8.00390625 C-20.3158304 -0.48256788 -10.4122634 -3.47075447 0 0 Z " fill="#F6F6F6" transform="translate(177.61328125,223.87109375)"/>
<path d="M0 0 C0.53625 0.28875 1.0725 0.5775 1.625 0.875 C0.75 6.625 0.75 6.625 -0.375 8.875 C-5.125 8 -5.125 8 -7.375 6.875 C-10.03335737 6.75061549 -12.65405229 6.68983812 -15.3125 6.6875 C-16.04146484 6.67525391 -16.77042969 6.66300781 -17.52148438 6.65039062 C-21.3463391 6.63987315 -23.11856564 6.70404376 -26.375 8.875 C-26.73797936 10.85247122 -26.73797936 10.85247122 -26.5625 13 C-26.500625 14.27875 -26.43875 15.5575 -26.375 16.875 C-25.80394531 17.04515625 -25.23289062 17.2153125 -24.64453125 17.390625 C-22.90720804 17.90988854 -21.17169441 18.43522472 -19.4375 18.96484375 C-17.32186054 19.59359884 -15.19577935 20.18788284 -13.0625 20.75390625 C-6.04870778 22.69406405 -1.4352416 24.58474741 3.625 29.875 C5.22589019 33.07678039 4.9823266 36.39268987 4.625 39.875 C2.42845804 45.88658851 -0.94671052 48.42835946 -6.3125 51.625 C-14.39809409 54.83805267 -24.23157699 53.42296408 -32.2890625 50.82421875 C-34.59217566 49.77617287 -36.41118198 48.46116071 -38.375 46.875 C-37.5 41.125 -37.5 41.125 -36.375 38.875 C-33.58817195 39.51572163 -31.03348037 40.39525486 -28.375 41.4375 C-22.33914787 43.47947982 -15.15783808 44.22555641 -9.06640625 42.05078125 C-7.01532257 40.90311517 -7.01532257 40.90311517 -6.625 37.75 C-6.5425 36.80125 -6.46 35.8525 -6.375 34.875 C-10.62109387 30.91503105 -16.07611222 30.22847002 -21.55664062 28.9453125 C-27.69000296 27.38763318 -32.99842539 25.24947335 -36.7890625 19.8671875 C-38.35261621 14.55110487 -38.14305115 9.47018316 -35.75 4.5 C-26.63227994 -5.57748006 -11.71344307 -5.54847303 0 0 Z " fill="#F5F5F5" transform="translate(140.375,213.125)"/>
<path d="M0 0 C3.5185363 2.20722995 5.8368226 5.35723894 7.6875 9.05859375 C7.77336809 11.38275671 7.79461043 13.70942682 7.78515625 16.03515625 C7.7837413 16.72040375 7.78232635 17.40565125 7.78086853 18.11166382 C7.77526675 20.30235136 7.76271406 22.49293705 7.75 24.68359375 C7.74498522 26.16796727 7.74042228 27.6523424 7.73632812 29.13671875 C7.72529677 32.7773769 7.70803099 36.41797539 7.6875 40.05859375 C4.7175 40.05859375 1.7475 40.05859375 -1.3125 40.05859375 C-1.6425 39.06859375 -1.9725 38.07859375 -2.3125 37.05859375 C-2.99441406 37.54457031 -3.67632812 38.03054688 -4.37890625 38.53125 C-9.68648414 41.29458283 -15.48020165 40.6746816 -21.3125 40.05859375 C-24.95449953 38.82244062 -26.811872 36.69272255 -29.1875 33.68359375 C-30.57034626 30.45695249 -30.81009088 28.54172993 -30.3125 25.05859375 C-27.97711206 20.64730542 -25.85885697 18.10445439 -21.3125 16.05859375 C-18.03152276 15.7033287 -14.79507973 15.77526369 -11.5 15.87109375 C-10.17452148 15.89139648 -10.17452148 15.89139648 -8.82226562 15.91210938 C-6.65207977 15.94730158 -4.48220967 16.0011039 -2.3125 16.05859375 C-3.25163073 11.11690565 -3.25163073 11.11690565 -6.4375 7.62109375 C-13.34075538 6.27045683 -17.17099611 6.7736033 -23.3125 10.05859375 C-24.3025 9.72859375 -25.2925 9.39859375 -26.3125 9.05859375 C-27.5 5.99609375 -27.5 5.99609375 -28.3125 3.05859375 C-20.66498056 -3.41238424 -9.06445084 -3.94681297 0 0 Z " fill="#F8F8F8" transform="translate(387.3125,224.94140625)"/>
<path d="M0 0 C3.3 0 6.6 0 10 0 C10.33 1.32 10.66 2.64 11 4 C11.928125 3.34 12.85625 2.68 13.8125 2 C18.70053888 -0.79174578 23.51981749 -0.67155035 29 0 C34.67458259 1.89152753 38.32628019 5.65256038 41 11 C41.08586809 13.32416296 41.10711043 15.65083307 41.09765625 17.9765625 C41.0962413 18.66181 41.09482635 19.3470575 41.09336853 20.05307007 C41.08776675 22.24375761 41.07521406 24.4343433 41.0625 26.625 C41.05748522 28.10937352 41.05292228 29.59374865 41.04882812 31.078125 C41.03779677 34.71878315 41.02053099 38.35938164 41 42 C37.7 42 34.4 42 31 42 C30.9906543 41.17274414 30.98130859 40.34548828 30.97167969 39.49316406 C30.91799681 35.74483585 30.8343429 31.99775838 30.75 28.25 C30.73582031 26.94804687 30.72164062 25.64609375 30.70703125 24.3046875 C30.67480469 23.05429688 30.64257812 21.80390625 30.609375 20.515625 C30.58842773 19.36352539 30.56748047 18.21142578 30.54589844 17.02441406 C29.89326877 13.40868226 28.87415392 12.21865679 26 10 C23.60050257 9.29961442 23.60050257 9.29961442 21.0625 9.375 C20.22847656 9.34148437 19.39445312 9.30796875 18.53515625 9.2734375 C15.5574594 10.12682982 13.86290843 11.37370228 11.98852539 13.84716797 C9.77578607 18.66611964 10.21288508 24.16823847 10.1875 29.375 C10.16236328 30.58800781 10.13722656 31.80101562 10.11132812 33.05078125 C10.0525998 36.0341804 10.0162133 39.01611693 10 42 C6.7 42 3.4 42 0 42 C0 28.14 0 14.28 0 0 Z " fill="#F4F4F4" transform="translate(196,223)"/>
<path d="M0 0 C-1.1858237 3.37503669 -2.27573689 5.64722731 -5 8 C-5.70769531 7.67386719 -6.41539062 7.34773437 -7.14453125 7.01171875 C-10.19665071 5.93032485 -12.46444035 5.76413212 -15.6875 5.8125 C-17.11642578 5.82216797 -17.11642578 5.82216797 -18.57421875 5.83203125 C-21.00930779 5.84450377 -21.00930779 5.84450377 -23 7 C-23 8.65 -23 10.3 -23 12 C-19.35834586 13.34166205 -15.80843976 14.25290131 -12 14.9375 C-7.91952098 15.72409836 -4.56402701 16.77248312 -1 19 C1.69342689 23.04014033 1.65977537 26.25629863 1 31 C-1.51901263 35.63498324 -5.09880638 37.45724552 -10 39 C-12.74914969 39.28069396 -15.20427711 39.43100732 -17.9375 39.375 C-18.98756226 39.36303589 -18.98756226 39.36303589 -20.05883789 39.35083008 C-25.36079532 39.20456493 -29.36299558 38.55508407 -34 36 C-34.495 34.515 -34.495 34.515 -35 33 C-33.5625 30.3125 -33.5625 30.3125 -32 28 C-31.13375 28.33 -30.2675 28.66 -29.375 29 C-23.6238671 30.67197884 -14.43707127 31.71853563 -9 29 C-9.33 27.68 -9.66 26.36 -10 25 C-11.15757812 24.76925781 -12.31515625 24.53851563 -13.5078125 24.30078125 C-15.04707299 23.97228054 -16.58612488 23.64280132 -18.125 23.3125 C-19.26582031 23.08916992 -19.26582031 23.08916992 -20.4296875 22.86132812 C-25.88693847 21.66167382 -29.01503846 19.94151181 -33 16 C-34.61931552 12.76136897 -34.56716392 9.50077043 -34 6 C-31.48435677 1.95972451 -28.75775091 -0.86342325 -24.2109375 -2.53125 C-15.74350741 -4.32646486 -7.91304825 -3.21886709 0 0 Z " fill="#F5F5F5" transform="translate(277,226)"/>
<path d="M0 0 C2.97 0 5.94 0 9 0 C9.33 1.65 9.66 3.3 10 5 C10.639375 4.360625 11.27875 3.72125 11.9375 3.0625 C16.06693371 0.28145281 19.06567216 0.29458674 24 0 C24 2.97 24 5.94 24 9 C21.78645833 9.35807292 19.57291667 9.71614583 17.359375 10.07421875 C14.08111063 11.36055758 12.94577316 13.08938065 11 16 C10.36639024 18.9817875 10.36639024 18.9817875 10.390625 22.17578125 C10.35839844 23.33271484 10.32617188 24.48964844 10.29296875 25.68164062 C10.27169922 27.47891602 10.27169922 27.47891602 10.25 29.3125 C10.22035156 30.53001953 10.19070313 31.74753906 10.16015625 33.00195312 C10.08958177 36.00136833 10.03682136 39.0000117 10 42 C6.7 42 3.4 42 0 42 C0 28.14 0 14.28 0 0 Z " fill="#F6F6F6" transform="translate(331,223)"/>
<path d="M0 0 C0.85464844 -0.00515625 1.70929688 -0.0103125 2.58984375 -0.015625 C6.25823285 0.37845155 8.35017203 1.46135118 10.8125 4.1875 C12.72073434 8.86267413 12.85604356 13.27761236 12.0625 18.25 C10.2030346 21.91906008 8.02080069 23.93056644 4.0625 25.25 C-1.149294 25.64334294 -4.57646805 25.22343088 -8.9375 22.25 C-11.65848528 18.3499211 -12.47568441 14.87786312 -12.296875 10.2109375 C-11.6935635 6.91895518 -10.044189 4.7780268 -7.9375 2.25 C-4.71002945 0.09835297 -3.73244361 -0.02245079 0 0 Z " fill="#030303" transform="translate(301.9375,231.75)"/>
<path d="M0 0 C3.71575331 1.35767909 5.53241523 2.36096748 7.875 5.5625 C9 8 9 8 9 10 C1.41 10 -6.18 10 -14 10 C-13 4 -13 4 -10.375 1.625 C-6.46870819 -0.25580717 -4.28628117 -0.53578515 0 0 Z " fill="#0A0A0A" transform="translate(172,231)"/>
<path d="M0 0 C2.2143133 0.2933883 2.2143133 0.2933883 5.23828125 -0.51171875 C7.98828125 -0.82421875 7.98828125 -0.82421875 10.36328125 0.48828125 C12.83027207 4.56830453 12.3078644 8.52407101 11.98828125 13.17578125 C10.66828125 13.17578125 9.34828125 13.17578125 7.98828125 13.17578125 C7.49328125 8.22578125 7.49328125 8.22578125 6.98828125 3.17578125 C5.66828125 2.84578125 4.34828125 2.51578125 2.98828125 2.17578125 C2.65828125 5.80578125 2.32828125 9.43578125 1.98828125 13.17578125 C0.66828125 13.17578125 -0.65171875 13.17578125 -2.01171875 13.17578125 C-2.34171875 9.87578125 -2.67171875 6.57578125 -3.01171875 3.17578125 C-4.33171875 3.50578125 -5.65171875 3.83578125 -7.01171875 4.17578125 C-7.34171875 7.14578125 -7.67171875 10.11578125 -8.01171875 13.17578125 C-9.00171875 13.17578125 -9.99171875 13.17578125 -11.01171875 13.17578125 C-11.01171875 8.88578125 -11.01171875 4.59578125 -11.01171875 0.17578125 C-6.69184046 -0.68819441 -4.22541204 -0.6604693 0 0 Z " fill="#8E8E8E" transform="translate(275.01171875,293.82421875)"/>
<path d="M0 0 C1.26328125 0.02707031 2.5265625 0.05414063 3.828125 0.08203125 C4.79234375 0.11683594 5.7565625 0.15164062 6.75 0.1875 C6.984375 6.8828125 6.984375 6.8828125 4.875 9.625 C0.58522632 11.76988684 -3.52985703 12.0755269 -8.25 11.1875 C-10.60353458 9.37191618 -11.16850496 8.65318593 -11.6875 5.6875 C-11.25 3.1875 -11.25 3.1875 -9.67578125 1.54296875 C-6.34381645 -0.31885377 -3.7888699 -0.10524639 0 0 Z " fill="#0C0C0C" transform="translate(378.25,246.8125)"/>
<path d="M0 0 C0.99 0 1.98 0 3 0 C3 0.66 3 1.32 3 2 C4.32 2 5.64 2 7 2 C7 2.99 7 3.98 7 5 C5.68 5 4.36 5 3 5 C3 7.64 3 10.28 3 13 C4.32 13 5.64 13 7 13 C7 13.99 7 14.98 7 16 C4.625 16.125 4.625 16.125 2 16 C0 14 0 14 -0.1953125 11.8359375 C-0.13020833 9.55729167 -0.06510417 7.27864583 0 5 C-3.3 5.33 -6.6 5.66 -10 6 C-6.23570226 8 -6.23570226 8 -3 9 C-3 10.98 -3 12.96 -3 15 C-6.21451269 16.60725635 -9.43612536 16.05748185 -13 16 C-13.33 15.01 -13.66 14.02 -14 13 C-11.36 13 -8.72 13 -6 13 C-6 12.34 -6 11.68 -6 11 C-6.94875 10.87625 -7.8975 10.7525 -8.875 10.625 C-12 10 -12 10 -14 8 C-13.63318342 5.06546739 -13.13562754 4.13562754 -11 2 C-8.3984375 2.0234375 -8.3984375 2.0234375 -5.375 2.375 C-4.37210938 2.48585938 -3.36921875 2.59671875 -2.3359375 2.7109375 C-1.17964844 2.85402344 -1.17964844 2.85402344 0 3 C0 2.01 0 1.02 0 0 Z " fill="#959595" transform="translate(240,291)"/>
<path d="M0 0 C3.4375 1 3.4375 1 5.375 2.875 C6.4375 5 6.4375 5 6.4375 8 C2.8075 8 -0.8225 8 -4.5625 8 C-4.5625 8.66 -4.5625 9.32 -4.5625 10 C-1.5925 10 1.3775 10 4.4375 10 C4.1075 11.32 3.7775 12.64 3.4375 14 C-2.83836207 14.48275862 -2.83836207 14.48275862 -6 12.375 C-8.03411336 9.28314769 -8.16855429 7.63632575 -7.5625 4 C-5.27647022 0.43379354 -4.27192374 0 0 0 Z " fill="#959595" transform="translate(255.5625,293)"/>
<path d="M0 0 C0.99 0 1.98 0 3 0 C2.05723865 3.0211216 1.04246916 6.01188797 0 9 C-0.2784375 9.84691406 -0.556875 10.69382812 -0.84375 11.56640625 C-1.72535178 13.93381103 -2.532584 15.94103192 -4 18 C-7.75 19.0625 -7.75 19.0625 -11 19 C-11 18.01 -11 17.02 -11 16 C-9.68 15.67 -8.36 15.34 -7 15 C-7.78175515 10.15311808 -9.39844278 5.6233633 -11 1 C-9.02 1.495 -9.02 1.495 -7 2 C-6.34 4.31 -5.68 6.62 -5 9 C-4.34 9 -3.68 9 -3 9 C-2.01 6.03 -1.02 3.06 0 0 Z " fill="#959595" transform="translate(223,293)"/>
<path d="M0 0 C3 0.1875 3 0.1875 5 1.1875 C4.67 2.1775 4.34 3.1675 4 4.1875 C2.02 4.1875 0.04 4.1875 -2 4.1875 C-1.4225 4.47625 -0.845 4.765 -0.25 5.0625 C1.83333333 6.10416667 3.91666667 7.14583333 6 8.1875 C5.625 10.625 5.625 10.625 5 13.1875 C1.78548731 14.79475635 -1.43612536 14.24498185 -5 14.1875 C-5.33 13.1975 -5.66 12.2075 -6 11.1875 C-3.36 11.1875 -0.72 11.1875 2 11.1875 C2 10.5275 2 9.8675 2 9.1875 C1.05125 9.06375 0.1025 8.94 -0.875 8.8125 C-4 8.1875 -4 8.1875 -6 6.1875 C-5.48493038 2.06694303 -4.32783407 0.27048963 0 0 Z " fill="#8F8F8F" transform="translate(206,292.8125)"/>
<path d="M0 0 C3 0.1875 3 0.1875 5 1.1875 C5 1.8475 5 2.5075 5 3.1875 C2.69 3.1875 0.38 3.1875 -2 3.1875 C-2 4.1775 -2 5.1675 -2 6.1875 C0.31 6.5175 2.62 6.8475 5 7.1875 C5.33 8.8375 5.66 10.4875 6 12.1875 C2.91111478 14.24675681 2.29064073 14.4265374 -1.1875 14.3125 C-3.0746875 14.250625 -3.0746875 14.250625 -5 14.1875 C-5.33 13.1975 -5.66 12.2075 -6 11.1875 C-3.03 11.1875 -0.06 11.1875 3 11.1875 C3 10.5275 3 9.8675 3 9.1875 C1.88625 9.06375 0.7725 8.94 -0.375 8.8125 C-4 8.1875 -4 8.1875 -6 6.1875 C-5.48493038 2.06694303 -4.32783407 0.27048963 0 0 Z " fill="#8E8E8E" transform="translate(294,292.8125)"/>
<path d="M0 0 C4.00375642 1.4856239 7.61421847 3.36863385 11.3125 5.5 C12.38113281 6.1084375 13.44976562 6.716875 14.55078125 7.34375 C15.76314453 8.16359375 15.76314453 8.16359375 17 9 C17 9.66 17 10.32 17 11 C14.56866946 12.63863397 12.15228465 14.14921334 9.625 15.625 C8.57699219 16.25535156 8.57699219 16.25535156 7.5078125 16.8984375 C2.27140828 20 2.27140828 20 0 20 C0 19.01 0 18.02 0 17 C2.1171875 15.39453125 2.1171875 15.39453125 4.875 13.8125 C5.77992188 13.28269531 6.68484375 12.75289063 7.6171875 12.20703125 C10 11 10 11 12 11 C12 10.34 12 9.68 12 9 C11.319375 8.7525 10.63875 8.505 9.9375 8.25 C6.43134917 6.75802092 3.28379632 4.93164489 0 3 C0 2.01 0 1.02 0 0 Z " fill="#929292" transform="translate(303,289)"/>
<path d="M0 0 C0 0.99 0 1.98 0 3 C-2.1875 4.53515625 -2.1875 4.53515625 -5 6.0625 C-6.69671464 6.98862341 -8.37266925 7.95676475 -10 9 C-10 9.66 -10 10.32 -10 11 C-7.46361472 12.62600413 -4.83464792 14.02729536 -2.1875 15.46484375 C-1.465625 15.97144531 -0.74375 16.47804688 0 17 C0 17.99 0 18.98 0 20 C-3.95906817 18.56691865 -7.28718181 16.66858051 -10.8125 14.375 C-11.78832031 13.74335938 -12.76414063 13.11171875 -13.76953125 12.4609375 C-14.50558594 11.97882813 -15.24164063 11.49671875 -16 11 C-14.6551963 6.96558889 -12.04690097 5.87332753 -8.5625 3.8125 C-7.96373047 3.44447266 -7.36496094 3.07644531 -6.74804688 2.69726562 C-2.27929325 0 -2.27929325 0 0 0 Z " fill="#979797" transform="translate(196,289)"/>
<path d="M0 0 C0.99 0 1.98 0 3 0 C3 0.66 3 1.32 3 2 C4.32 2 5.64 2 7 2 C7 2.99 7 3.98 7 5 C5.68 5 4.36 5 3 5 C3 7.64 3 10.28 3 13 C4.32 13 5.64 13 7 13 C7 13.99 7 14.98 7 16 C4.625 16.125 4.625 16.125 2 16 C0 14 0 14 -0.1953125 11.8359375 C-0.17210937 11.02382813 -0.14890625 10.21171875 -0.125 9.375 C-0.10695312 8.55773437 -0.08890625 7.74046875 -0.0703125 6.8984375 C-0.04710937 6.27195312 -0.02390625 5.64546875 0 5 C-0.66 5 -1.32 5 -2 5 C-2 4.34 -2 3.68 -2 3 C-1.34 3 -0.68 3 0 3 C0 2.01 0 1.02 0 0 Z " fill="#9A9A9A" transform="translate(240,291)"/>
<path d="M0 0 C2.875 0.3125 2.875 0.3125 6 1 C8.20914 4.31371 8.22481553 5.3446021 8.125 9.1875 C8.10695313 10.08855469 8.08890625 10.98960937 8.0703125 11.91796875 C8.03550781 12.94857422 8.03550781 12.94857422 8 14 C6.68 14 5.36 14 4 14 C3.97421875 13.30132812 3.9484375 12.60265625 3.921875 11.8828125 C3.86515625 10.97273438 3.8084375 10.06265625 3.75 9.125 C3.70359375 8.22007812 3.6571875 7.31515625 3.609375 6.3828125 C3.24388852 3.82889456 3.24388852 3.82889456 0.953125 2.6796875 C0.30859375 2.45539063 -0.3359375 2.23109375 -1 2 C-0.67 1.34 -0.34 0.68 0 0 Z " fill="#8B8B8B" transform="translate(279,293)"/>
<path d="M0 0 C3.3 0 6.6 0 10 0 C10 2.64 10 5.28 10 8 C9.01 8.33 8.02 8.66 7 9 C7 7.35 7 5.7 7 4 C4.69 3.67 2.38 3.34 0 3 C0 2.01 0 1.02 0 0 Z " fill="#161616" transform="translate(230,296)"/>
<path d="M0 0 C1.32 0.33 2.64 0.66 4 1 C3.67 4.96 3.34 8.92 3 13 C2.01 13 1.02 13 0 13 C0 8.71 0 4.42 0 0 Z " fill="#A4A4A4" transform="translate(264,294)"/>
<path d="M0 0 C0 0.99 0 1.98 0 3 C-2.1171875 4.53515625 -2.1171875 4.53515625 -4.875 6.0625 C-8.69455032 8.18803738 -8.69455032 8.18803738 -12 11 C-12.33 9.68 -12.66 8.36 -13 7 C-11.21190303 5.82786955 -9.41940875 4.66244474 -7.625 3.5 C-6.62726563 2.8503125 -5.62953125 2.200625 -4.6015625 1.53125 C-2 0 -2 0 0 0 Z " fill="#919191" transform="translate(196,289)"/>
<path d="M0 0 C2.8125 -0.25 2.8125 -0.25 6 0 C7.875 1.8125 7.875 1.8125 9 4 C9 4.99 9 5.98 9 7 C5.7 7 2.4 7 -1 7 C-1 6.67 -1 6.34 -1 6 C1.31 6 3.62 6 6 6 C4.33045181 2.77595022 4.33045181 2.77595022 1.375 2.3125 C0.59125 2.209375 -0.1925 2.10625 -1 2 C-0.67 1.34 -0.34 0.68 0 0 Z " fill="#9E9E9E" transform="translate(253,294)"/>
<path d="M0 0 C3 0.1875 3 0.1875 5 1.1875 C5 1.8475 5 2.5075 5 3.1875 C2.69 3.1875 0.38 3.1875 -2 3.1875 C-2.33 3.8475 -2.66 4.5075 -3 5.1875 C-3.33 4.8575 -3.66 4.5275 -4 4.1875 C-4.66 4.8475 -5.32 5.5075 -6 6.1875 C-5.18094338 2.09221692 -4.51352241 0.28209515 0 0 Z " fill="#8A8A8A" transform="translate(294,292.8125)"/>
<path d="M0 0 C4.95 0.99 4.95 0.99 10 2 C10 2.66 10 3.32 10 4 C6.7 4 3.4 4 0 4 C0 2.68 0 1.36 0 0 Z " fill="#0B0B0B" transform="translate(287,300)"/>
<path d="M0 0 C0.66 0.66 1.32 1.32 2 2 C4.06874034 2.6425235 4.06874034 2.6425235 6 3 C6 3.66 6 4.32 6 5 C4.02 5 2.04 5 0 5 C-0.5625 3.0625 -0.5625 3.0625 -1 1 C-0.67 0.67 -0.34 0.34 0 0 Z " fill="#A1A1A1" transform="translate(290,296)"/>
<path d="M0 0 C2.97 0.33 5.94 0.66 9 1 C9 1.66 9 2.32 9 3 C6 4 6 4 3.9375 3.1875 C2 2 2 2 0 0 Z " fill="#7F7F7F" transform="translate(229,293)"/>
<path d="M0 0 C2.4375 0.375 2.4375 0.375 5 1 C5.33 1.66 5.66 2.32 6 3 C3.36 3 0.72 3 -2 3 C-1.34 2.01 -0.68 1.02 0 0 Z " fill="#0A0A0A" transform="translate(253,296)"/>
<path d="M0 0 C0.78375 0.04125 1.5675 0.0825 2.375 0.125 C1.75625 0.57875 1.1375 1.0325 0.5 1.5 C-1.68419833 3.09608919 -1.68419833 3.09608919 -3.625 5.125 C-4.615 5.455 -5.605 5.785 -6.625 6.125 C-3.85227273 0.18344156 -3.85227273 0.18344156 0 0 Z " fill="#828282" transform="translate(254.625,292.875)"/>
</svg>
